# xmcd
# 
# Track frame offsets:
#     150
#     14828
#     30039
#     48947
#     66713
#     82789
#     98205
# 
# Disc length: 1495
# 
# Revision: 0
# Processed by: cddbd v1.5.2PL0 Copyright (c) Steve Scherf et al.
# Submitted via: BonkEnc v1.0.15
# 
DISCID=4f05d507
DTITLE=The Digbees - Love is a Train
DYEAR=0
DGENRE=
TTITLE0=Georgia Mae
TTITLE1=Front Door
TTITLE2=Love is a Train
TTITLE3=Affected Nonchalance
TTITLE4=Cave Boy
TTITLE5=Can't Get Over You
TTITLE6=Love Let Go
EXTD=
EXTT0=
EXTT1=
EXTT2=
EXTT3=
EXTT4=
EXTT5=
EXTT6=
PLAYORDER=
